<svg width="24" height="21" viewBox="0 0 24 21" fill="none" xmlns="http://www.w3.org/2000/svg">
<g id="Group 672">
<g id="Group 666">
<ellipse id="Ellipse 13" cx="17.0694" cy="3.06602" rx="3.06937" ry="3.06602" fill="current"/>
</g>
<g id="Group 667">
<circle id="Ellipse 13_2" cx="7.20461" cy="4.01321" r="4.01321" fill="current"/>
<path id="Intersect" fill-rule="evenodd" clip-rule="evenodd" d="M3.17917 19.5062C0.232806 18.4163 -1.06476 14.7412 1.0257 12.3962C2.57853 10.6543 4.85673 9.55469 7.39581 9.55469C9.93468 9.55469 12.2127 10.6541 13.7655 12.3958C15.8562 14.7406 14.5588 18.4159 11.6125 19.5059C10.3007 19.9913 8.8796 20.2568 7.3955 20.2568C5.91167 20.2568 4.49079 19.9914 3.17917 19.5062Z" fill="current"/>
</g>
<path id="Subtract" fill-rule="evenodd" clip-rule="evenodd" d="M12 9.45291C13.2991 10.043 14.4342 10.9236 15.3191 12.0101C16.3821 13.3153 16.5063 14.9592 15.9449 16.386C16.4796 16.4672 17.0275 16.5093 17.5853 16.5093C18.7088 16.5093 19.7917 16.3385 20.8087 16.0217C23.8105 15.0869 25.1258 11.3049 22.8636 9.12152C21.5039 7.80928 19.6406 7 17.5851 7C15.5297 7 13.6665 7.80915 12.3068 9.12122C12.1961 9.22812 12.0938 9.33886 12 9.45291Z" fill="current"/>
</g>
</svg>
