<svg width="24" height="24" viewBox="0 0 22 24" fill="none" xmlns="http://www.w3.org/2000/svg">
<path id="Vector" d="M1.23774e-05 11.966C0.000564087 9.44305 0.793643 6.9902 2.25719 4.98496C3.72074 2.97972 5.77365 1.53322 8.09997 0.868069C10.4263 0.20292 12.8971 0.355991 15.1321 1.30373C17.3671 2.25146 19.2425 3.94133 20.4696 6.11326C21.6967 8.2852 22.2075 10.8188 21.9234 13.3242C21.6393 15.8296 20.5761 18.1679 18.8973 19.9792C17.2186 21.7905 15.0173 22.9745 12.6324 23.3489C10.2475 23.7233 7.81102 23.2674 5.69801 22.0513L1.42121 23.4138C1.23045 23.4746 1.02748 23.48 0.834016 23.4295C0.64055 23.3789 0.463864 23.2742 0.322857 23.1267C0.18185 22.9792 0.0818258 22.7944 0.0334846 22.592C-0.0148565 22.3896 -0.00969673 22.1772 0.0484122 21.9777L1.35081 17.4966C0.461912 15.8017 -0.00276499 13.8992 1.23774e-05 11.966ZM6.60001 10.8152C6.60001 11.1204 6.7159 11.4131 6.92219 11.6289C7.12848 11.8448 7.40827 11.966 7.70001 11.966H14.3C14.5917 11.966 14.8715 11.8448 15.0778 11.6289C15.2841 11.4131 15.4 11.1204 15.4 10.8152C15.4 10.51 15.2841 10.2173 15.0778 10.0015C14.8715 9.7857 14.5917 9.66446 14.3 9.66446H7.70001C7.40827 9.66446 7.12848 9.7857 6.92219 10.0015C6.7159 10.2173 6.60001 10.51 6.60001 10.8152ZM7.70001 14.2675C7.40827 14.2675 7.12848 14.3888 6.92219 14.6046C6.7159 14.8204 6.60001 15.1131 6.60001 15.4183C6.60001 15.7235 6.7159 16.0162 6.92219 16.232C7.12848 16.4478 7.40827 16.5691 7.70001 16.5691H12.1C12.3917 16.5691 12.6715 16.4478 12.8778 16.232C13.0841 16.0162 13.2 15.7235 13.2 15.4183C13.2 15.1131 13.0841 14.8204 12.8778 14.6046C12.6715 14.3888 12.3917 14.2675 12.1 14.2675H7.70001Z" fill="#current"/>
</svg>
