<svg width="23" height="23" viewBox="0 0 23 23" fill="none" xmlns="http://www.w3.org/2000/svg">
<path id="Vector" d="M22.524 11.3124L12.0738 0.748408C11.9986 0.67214 11.9092 0.611632 11.8108 0.570347C11.7125 0.529063 11.607 0.507812 11.5005 0.507812C11.394 0.507812 11.2885 0.529063 11.1901 0.570347C11.0917 0.611632 11.0023 0.67214 10.9271 0.748408L0.476967 11.3124C0.17252 11.6204 0 12.0388 0 12.4751C0 13.3811 0.728135 14.1177 1.62372 14.1177H2.7248V21.6557C2.7248 22.11 3.0876 22.477 3.53666 22.477H9.87676V16.7279H12.7183V22.477H19.4643C19.9134 22.477 20.2762 22.11 20.2762 21.6557V14.1177H21.3772C21.8085 14.1177 22.2221 13.9457 22.5265 13.6352C23.1582 12.9935 23.1582 11.9541 22.524 11.3124Z" fill="current"/>
</svg>
